<?xml version="1.0" encoding="UTF-8"?>
<svg version="1.1" xmlns="http://www.w3.org/2000/svg" width="554" height="554">
<path d="M0 0 C182.82 0 365.64 0 554 0 C554 182.82 554 365.64 554 554 C371.18 554 188.36 554 0 554 C0 371.18 0 188.36 0 0 Z " fill="#FEFEFE" transform="translate(0,0)"/>
<path d="M0 0 C33.29213024 -0.06864452 66.58424289 -0.12151779 99.87642817 -0.15319599 C103.80555835 -0.15694817 107.73468839 -0.16083114 111.66381836 -0.16479492 C112.44604788 -0.16558185 113.2282774 -0.16636878 114.03421084 -0.16717956 C126.70524652 -0.18023873 139.37624143 -0.20389538 152.04725292 -0.23145839 C165.04580716 -0.25949838 178.04434003 -0.27617328 191.04292327 -0.28226548 C199.06580681 -0.28638485 207.0885751 -0.29940241 215.11142317 -0.3237494 C221.26006528 -0.3414599 227.40861927 -0.34336918 233.5572834 -0.33932304 C236.08206772 -0.34015035 238.60685629 -0.34614382 241.13161469 -0.35761642 C244.57197015 -0.37248652 248.01182784 -0.3689733 251.45219421 -0.36076355 C252.45705846 -0.36950207 253.46192271 -0.3782406 254.49723738 -0.38724393 C263.20965803 -0.33083781 263.20965803 -0.33083781 267 3 C269.17634467 6.09603643 269.25281815 8.77168937 269.26069641 12.49656677 C269.26778122 13.61392212 269.27486603 14.73127747 269.28216553 15.88249207 C269.27968811 17.10390396 269.27721069 18.32531586 269.2746582 19.58374023 C269.2823246 21.51840652 269.2823246 21.51840652 269.29014587 23.49215698 C269.30353238 27.0272959 269.30411495 30.56232789 269.30158257 34.09748721 C269.30051263 37.04979534 269.30539682 40.00208185 269.310188 42.95438534 C269.32128195 49.91988337 269.32172121 56.88532748 269.31567383 63.85083008 C269.30963307 71.0342893 269.32194777 78.2175527 269.3432439 85.40097851 C269.36086227 91.57095031 269.3668609 97.7408598 269.36360615 103.91085583 C269.36179353 107.59480906 269.36442726 111.27862259 269.37832069 114.96255302 C269.3932347 119.07078635 269.3839269 123.17862129 269.37231445 127.28686523 C269.37995819 128.5062529 269.38760193 129.72564056 269.39547729 130.98197937 C269.38846298 132.10215454 269.38144867 133.22232971 269.3742218 134.37644958 C269.37447341 135.83292483 269.37447341 135.83292483 269.37473011 137.31882381 C268.92933624 140.50559583 267.85285938 142.39310383 266 145 C263.04986352 147.16479922 259.83708546 147.41143751 256.26489258 147.88549805 C223.76952154 152.2184477 194.67193668 170.49429393 174.33203125 195.89453125 C163.28698569 210.60275775 154.51968824 227.09701271 150 245 C149.78859375 245.80566406 149.5771875 246.61132812 149.359375 247.44140625 C145.02983281 265.22345453 145.31441033 286.1515469 149 304 C149.19464844 305.05445313 149.38929688 306.10890625 149.58984375 307.1953125 C153.01661374 324.02501127 160.83561751 339.78736152 171 353.5625 C173.73974774 357.35991779 175.18951564 360.16735112 175 365 C173.16365768 368.53645011 171.00670486 371.24283177 168.19798279 374.04925537 C167.4310611 374.82037155 166.6641394 375.59148773 165.87397766 376.38597107 C165.03698837 377.21734085 164.19999908 378.04871063 163.33764648 378.90527344 C162.45284607 379.7919722 161.56804565 380.67867096 160.65643311 381.59223938 C158.23665912 384.01507781 155.81251326 386.43337283 153.38613391 388.84958553 C150.84666355 391.38025482 148.31248429 393.91621246 145.77760315 396.45147705 C141.52318829 400.70495654 137.2649245 404.95455134 133.00415039 409.20166016 C128.07531097 414.11475018 123.1517419 419.03307148 118.23113769 423.95440841 C113.4970264 428.68912946 108.76006704 433.42098972 104.02150154 438.15125275 C102.00441363 440.16480676 99.98818017 442.17921073 97.97259331 444.19426727 C95.16237999 447.00329199 92.34792642 449.80804378 89.53295898 452.61230469 C88.27443871 453.87150475 88.27443871 453.87150475 86.99049377 455.15614319 C86.22639191 455.91598007 85.46229004 456.67581696 84.67503357 457.4586792 C84.00970832 458.12232861 83.34438307 458.78597801 82.65889645 459.46973801 C79.75011468 462.15296648 77.078142 462.52769324 73.13330078 462.46582031 C66.24260006 460.96119031 60.77584069 451.08941342 56.8125 445.75 C56.16249023 444.87593506 55.51248047 444.00187012 54.84277344 443.10131836 C37.739901 419.8307801 25.30510478 394.92711671 15 368 C14.71398926 367.26088379 14.42797852 366.52176758 14.13330078 365.76025391 C2.26158732 334.6180481 -0.66920118 300.40830012 -0.46426249 267.37724078 C-0.4465273 263.76698653 -0.45286565 260.15674873 -0.45587158 256.54646301 C-0.45794074 250.33236211 -0.44569279 244.11843282 -0.42292023 237.90437508 C-0.39001944 228.92059143 -0.37995497 219.93688837 -0.37496826 210.95305102 C-0.36627426 196.36749838 -0.33982137 181.78203666 -0.30175781 167.1965332 C-0.26488325 153.05168097 -0.23664775 138.90685367 -0.21972656 124.76196289 C-0.21867567 123.88595663 -0.21762477 123.00995036 -0.21654204 122.10739846 C-0.21132083 117.71150319 -0.20626625 113.31560774 -0.20129442 108.91971219 C-0.16001658 72.61307736 -0.08973204 36.30654584 0 0 Z " fill="#FEDB56" transform="translate(0,0)"/>
<path d="M0 0 C1.37494761 -0.00298657 1.37494761 -0.00298657 2.77767193 -0.00603348 C3.7912747 -0.00312064 4.80487747 -0.0002078 5.84919548 0.00279331 C6.92079505 0.00193889 7.99239462 0.00108446 9.0964669 0.00020415 C12.71098968 -0.00145165 16.32546672 0.00407236 19.93998528 0.00952244 C22.52152823 0.00980431 25.10307127 0.00964657 27.68461418 0.00907993 C33.25472938 0.00855482 38.82483289 0.01170027 44.39494514 0.01731777 C52.44845537 0.02543453 60.50195992 0.02804817 68.55547379 0.02930576 C81.62082197 0.031496 94.68616392 0.03815534 107.75150871 0.04760838 C120.44551881 0.05678321 133.13952722 0.0638637 145.83353996 0.06811619 C147.00664105 0.06851027 147.00664105 0.06851027 148.20344116 0.06891232 C152.12672655 0.07021733 156.05001195 0.07148104 159.97329736 0.07272422 C192.53625386 0.08309597 225.09920272 0.10071354 257.66215324 0.12304783 C257.75367924 33.41516836 257.82417692 66.70725762 257.86641456 99.999476 C257.87141748 103.92860627 257.87659476 107.85773629 257.88187981 111.78686619 C257.88292905 112.56909571 257.88397829 113.35132522 257.88505933 114.15725867 C257.90247158 126.82831119 257.93401376 139.49929124 257.97076443 152.17030074 C258.00815108 165.16885301 258.03038427 178.16736727 258.03850722 191.1659711 C258.04399974 199.1888937 258.06135641 207.21161145 258.09381911 215.234471 C258.11743317 221.38313025 258.11997884 227.53163283 258.11458397 233.68033123 C258.11568705 236.20512117 258.12367843 238.72991867 258.13897514 241.25466251 C258.15880267 244.69514417 258.15411807 248.13474098 258.14317131 251.57524204 C258.15482268 252.58010629 258.16647404 253.58497054 258.17847848 254.62028521 C258.14079112 258.98614409 258.08499557 261.43570499 255.75708961 265.21978569 C252.49622627 268.18229942 250.64437067 268.25153856 246.32343864 268.27021885 C245.19055916 268.27737415 244.05767967 268.28452946 242.8904705 268.29190159 C241.01715805 268.29593494 241.01715805 268.29593494 239.1060009 268.30004978 C237.79540199 268.30662098 236.48480309 268.31319218 235.13448906 268.3199625 C231.53322022 268.33737627 227.93196466 268.34792495 224.33066416 268.35616803 C222.0816344 268.36131667 219.83260877 268.36739242 217.58358192 268.37367916 C210.54951142 268.39273104 203.51545143 268.406963 196.48136008 268.41529113 C188.35656454 268.42506904 180.23204105 268.45140274 172.10734141 268.49179202 C165.83043039 268.52192709 159.55359747 268.53675745 153.2766155 268.54007214 C149.52608514 268.54242535 145.77584542 268.55142048 142.02539253 268.57653332 C137.84245155 268.60408974 133.66012054 268.59999096 129.47709465 268.59301853 C128.23226814 268.60582859 126.98744164 268.61863865 125.70489311 268.63183689 C123.99711441 268.62142117 123.99711441 268.62142117 122.25483513 268.61079502 C120.77095771 268.61437755 120.77095771 268.61437755 119.25710297 268.61803246 C115.94050845 267.98539465 114.7740127 266.69516767 112.66215324 264.12304783 C110.02700032 259.09329535 109.3576939 253.34911295 108.47465324 247.81054783 C104.938133 226.9943211 93.98819459 208.17089453 80.66215324 192.12304783 C79.88098137 191.17558689 79.09980949 190.22812595 78.29496574 189.25195408 C61.52278587 169.86771341 38.06100204 157.2236416 13.66215324 150.12304783 C12.97379387 149.92195408 12.28543449 149.72086033 11.57621574 149.51367283 C6.55069398 148.1598588 1.45474035 147.46317135 -3.70112801 146.78320408 C-6.56821425 146.06537063 -7.59320268 145.46617822 -9.33784676 143.12304783 C-10.36318377 140.04703678 -10.47094734 137.93180751 -10.48501778 134.70877171 C-10.49217308 133.58437687 -10.49932838 132.45998203 -10.50670052 131.30151463 C-10.50938942 130.06715672 -10.51207832 128.83279881 -10.51484871 127.56103611 C-10.52141991 126.26165104 -10.5279911 124.96226597 -10.53476143 123.62350559 C-10.55578214 119.31346969 -10.56616034 115.00343351 -10.57612801 110.69336033 C-10.58017598 109.20914663 -10.58429291 107.72493311 -10.58847809 106.2407198 C-10.60752355 99.26912119 -10.62175724 92.29753316 -10.63009006 85.32591355 C-10.63986754 77.27867757 -10.66620283 69.23171628 -10.70659095 61.18457711 C-10.73674211 54.96368078 -10.75155788 48.74286327 -10.75487107 42.52189529 C-10.75722227 38.80655817 -10.76619167 35.09151473 -10.79133224 31.37625599 C-10.81892411 27.23194387 -10.81478496 23.0882467 -10.80781746 18.94384861 C-10.82062752 17.71353916 -10.83343758 16.48322971 -10.84663582 15.21563816 C-10.839692 14.08560368 -10.83274818 12.95556919 -10.82559395 11.79129124 C-10.8279823 10.81163458 -10.83037066 9.83197792 -10.83283138 8.8226347 C-10.19583492 5.34853226 -8.74332722 3.6591307 -6.33784676 1.12304783 C-3.99007047 -0.05084031 -2.61669761 -0.00124962 0 0 Z " fill="#F67834" transform="translate(296.33784675598145,-0.1230478286743164)"/>
<path d="M0 0 C2.79582588 1.80958179 5.40972643 3.79431537 8.05859375 5.8125 C33.30102299 24.58509014 68.08154949 31.4354001 98.93017578 27.22631836 C120.2202245 23.81848965 140.91293184 16.1154724 158.359375 3.26171875 C161.92492184 0.65934815 164.09698693 -0.92078833 168.5625 -1.3125 C176.60458149 1.75811293 182.79955027 9.65449377 188.78686523 15.6574707 C189.62523422 16.49408737 190.46360321 17.33070404 191.32737732 18.19267273 C194.07362218 20.93454699 196.81622964 23.68002596 199.55859375 26.42578125 C201.47253394 28.33949838 203.3870725 30.25261658 205.30152893 32.16581726 C209.30006641 36.16254295 213.29650707 40.16135617 217.29174805 44.16137695 C221.91154987 48.78664188 226.5349732 53.40826331 231.16025013 58.02805263 C235.14015388 62.00342362 239.11811234 65.98073329 243.09444004 69.95968121 C245.46590717 72.33270735 247.83804494 74.70505248 250.21194267 77.07564735 C252.8500152 79.71119302 255.48488261 82.34990084 258.11889648 84.98950195 C259.3008963 86.16846542 259.3008963 86.16846542 260.5067749 87.37124634 C261.57692085 88.44562202 261.57692085 88.44562202 262.66868591 89.54170227 C263.29156714 90.16496053 263.91444838 90.78821878 264.5562048 91.43036366 C266.27938644 93.30373775 266.9747264 94.40373577 267.08325195 96.96411133 C266.78231986 101.36985048 266.40877889 103.49893716 263.54296875 107.01171875 C262.44693893 107.93110524 261.3263991 108.82178544 260.1875 109.6875 C259.57221436 110.18241943 258.95692871 110.67733887 258.32299805 111.18725586 C256.24287675 112.83136697 254.1297249 114.42072707 252 116 C251.2359082 116.56944336 250.47181641 117.13888672 249.68457031 117.72558594 C192.00250213 160.26405366 117.79564269 182.90584534 46.11572266 172.31201172 C43.89649782 171.98473623 41.6740011 171.6970274 39.44921875 171.41015625 C0.93178813 166.17149599 -38.94525053 151.11912586 -71 129 C-71.61762207 128.58169922 -72.23524414 128.16339844 -72.87158203 127.73242188 C-80.85663593 122.31486702 -88.60163248 116.71422452 -95.9375 110.4375 C-96.81498901 109.68690308 -96.81498901 109.68690308 -97.71020508 108.92114258 C-101.47221106 105.63143038 -103.73461165 103.44161823 -104.66133118 98.40757751 C-104.46430507 92.15008634 -99.647906 88.58402757 -95.41870117 84.47875977 C-94.50668442 83.56236221 -93.59466766 82.64596466 -92.65501404 81.70179749 C-90.16031095 79.19627987 -87.64158186 76.71627718 -85.11746001 74.24044538 C-82.47857113 71.64421494 -79.86163998 69.02603031 -77.24201965 66.41038513 C-72.84237147 62.02362014 -68.42821709 57.65191943 -64.00366211 53.2902832 C-58.32272971 47.69002958 -52.66496157 42.06697465 -47.01462841 36.43586826 C-42.15636286 31.59419853 -37.28919928 26.76150376 -32.41975999 21.93107486 C-31.37470472 20.89411835 -30.32995809 19.85685071 -29.2855165 18.81927609 C-25.85417978 15.41050435 -22.41414388 12.01078601 -18.96948242 8.61547852 C-18.10129883 7.75267273 -17.23311523 6.88986694 -16.33862305 6.00091553 C-15.54356857 5.22017166 -14.7485141 4.4394278 -13.92936707 3.63502502 C-13.23894412 2.95314904 -12.54852118 2.27127306 -11.83717632 1.56873417 C-8.17500797 -1.5583302 -4.35745354 -1.55338837 0 0 Z " fill="#3FC8F1" transform="translate(196,380)"/>
<path d="M0 0 C1.65918205 -0.01073296 1.65918205 -0.01073296 3.35188293 -0.02168274 C4.56596832 -0.02437164 5.78005371 -0.02706055 7.03092957 -0.02983093 C8.3092012 -0.03640213 9.58747284 -0.04297333 10.90447998 -0.04974365 C15.14477792 -0.070765 19.38507615 -0.08114366 23.62541199 -0.09111023 C25.08607693 -0.09515839 26.54674168 -0.09927533 28.00740623 -0.10346031 C34.86954997 -0.12250711 41.73168297 -0.13673967 48.59384805 -0.14507228 C56.511465 -0.15484568 64.42880246 -0.18116976 72.34632093 -0.22157317 C78.46871992 -0.25174258 84.59103882 -0.26654189 90.71351069 -0.26985329 C94.36907811 -0.27220271 98.02434677 -0.28114857 101.67983437 -0.30631447 C105.75928445 -0.333946 109.83811059 -0.3297616 113.91764832 -0.32279968 C115.12566101 -0.33560974 116.33367371 -0.3484198 117.57829285 -0.36161804 C123.86584474 -0.32244671 127.95154749 -0.21582905 132.66838074 4.14717102 C141.47649559 21.76340073 126.43148603 62.67655063 120.66838074 80.14717102 C115.64363443 94.24639346 109.78405666 107.97812028 102.66838074 121.14717102 C102.33016296 121.7834845 101.99194519 122.41979797 101.64347839 123.07539368 C92.87712374 139.50262039 82.47660649 154.76364562 70.66838074 169.14717102 C70.02513855 169.93349915 69.38189636 170.71982727 68.71916199 171.52998352 C65.47557269 175.40972471 64.11452301 176.94770312 59.04338074 177.64717102 C53.27752153 177.52317405 50.51537261 174.07921543 46.66838074 170.14717102 C45.61322533 169.12283048 44.55577037 168.10085541 43.49650574 167.08076477 C42.38583713 166.00006141 41.27646204 164.91802708 40.16838074 163.83467102 C39.62729675 163.30712219 39.08621277 162.77957336 38.5287323 162.23603821 C37.20246146 160.91147538 35.93030047 159.53317953 34.66838074 158.14717102 C34.66838074 157.48717102 34.66838074 156.82717102 34.66838074 156.14717102 C34.00838074 156.14717102 33.34838074 156.14717102 32.66838074 156.14717102 C32.66838074 155.48717102 32.66838074 154.82717102 32.66838074 154.14717102 C32.00838074 154.14717102 31.34838074 154.14717102 30.66838074 154.14717102 C30.66838074 153.48717102 30.66838074 152.82717102 30.66838074 152.14717102 C29.67838074 151.81717102 28.68838074 151.48717102 27.66838074 151.14717102 C27.66838074 150.48717102 27.66838074 149.82717102 27.66838074 149.14717102 C27.00838074 149.14717102 26.34838074 149.14717102 25.66838074 149.14717102 C25.66838074 148.48717102 25.66838074 147.82717102 25.66838074 147.14717102 C25.00838074 147.14717102 24.34838074 147.14717102 23.66838074 147.14717102 C23.66838074 146.48717102 23.66838074 145.82717102 23.66838074 145.14717102 C23.00838074 145.14717102 22.34838074 145.14717102 21.66838074 145.14717102 C21.66838074 144.48717102 21.66838074 143.82717102 21.66838074 143.14717102 C20.67838074 142.81717102 19.68838074 142.48717102 18.66838074 142.14717102 C18.66838074 141.48717102 18.66838074 140.82717102 18.66838074 140.14717102 C18.00838074 140.14717102 17.34838074 140.14717102 16.66838074 140.14717102 C16.66838074 139.48717102 16.66838074 138.82717102 16.66838074 138.14717102 C16.00838074 138.14717102 15.34838074 138.14717102 14.66838074 138.14717102 C14.66838074 137.48717102 14.66838074 136.82717102 14.66838074 136.14717102 C14.00838074 136.14717102 13.34838074 136.14717102 12.66838074 136.14717102 C12.66838074 135.48717102 12.66838074 134.82717102 12.66838074 134.14717102 C11.67838074 133.81717102 10.68838074 133.48717102 9.66838074 133.14717102 C9.66838074 132.48717102 9.66838074 131.82717102 9.66838074 131.14717102 C9.00838074 131.14717102 8.34838074 131.14717102 7.66838074 131.14717102 C7.66838074 130.48717102 7.66838074 129.82717102 7.66838074 129.14717102 C7.00838074 129.14717102 6.34838074 129.14717102 5.66838074 129.14717102 C5.66838074 128.48717102 5.66838074 127.82717102 5.66838074 127.14717102 C5.07025574 126.87904602 4.47213074 126.61092102 3.85588074 126.33467102 C1.6699022 125.14799696 0.2550548 124.05117989 -1.33161926 122.14717102 C-1.33161926 121.48717102 -1.33161926 120.82717102 -1.33161926 120.14717102 C-1.99161926 120.14717102 -2.65161926 120.14717102 -3.33161926 120.14717102 C-3.33161926 119.48717102 -3.33161926 118.82717102 -3.33161926 118.14717102 C-3.92974426 117.87904602 -4.52786926 117.61092102 -5.14411926 117.33467102 C-7.3300978 116.14799696 -8.7449452 115.05117989 -10.33161926 113.14717102 C-10.33161926 112.48717102 -10.33161926 111.82717102 -10.33161926 111.14717102 C-10.99161926 111.14717102 -11.65161926 111.14717102 -12.33161926 111.14717102 C-12.33161926 110.48717102 -12.33161926 109.82717102 -12.33161926 109.14717102 C-12.97099426 108.87904602 -13.61036926 108.61092102 -14.26911926 108.33467102 C-16.33161926 107.14717102 -16.33161926 107.14717102 -17.33161926 104.14717102 C-17.99161926 104.14717102 -18.65161926 104.14717102 -19.33161926 104.14717102 C-19.33161926 103.48717102 -19.33161926 102.82717102 -19.33161926 102.14717102 C-19.99161926 102.14717102 -20.65161926 102.14717102 -21.33161926 102.14717102 C-21.33161926 101.48717102 -21.33161926 100.82717102 -21.33161926 100.14717102 C-21.92974426 99.87904602 -22.52786926 99.61092102 -23.14411926 99.33467102 C-25.3300978 98.14799696 -26.7449452 97.05117989 -28.33161926 95.14717102 C-28.33161926 94.48717102 -28.33161926 93.82717102 -28.33161926 93.14717102 C-28.99161926 93.14717102 -29.65161926 93.14717102 -30.33161926 93.14717102 C-30.33161926 92.48717102 -30.33161926 91.82717102 -30.33161926 91.14717102 C-30.92458801 90.88162415 -31.51755676 90.61607727 -32.12849426 90.34248352 C-35.77541213 88.36383659 -38.16219311 85.66122553 -40.33161926 82.14717102 C-41.25364674 77.82073441 -41.28522813 75.78066769 -39.06599426 71.97920227 C-37.88470688 70.33147198 -36.68052712 68.70003963 -35.46052551 67.08076477 C-23.84103195 51.06931585 -16.18854419 31.30946396 -13.39411926 11.77217102 C-12.68620547 7.22382487 -11.9158247 4.29692731 -8.33161926 1.14717102 C-5.2783349 0.12940957 -3.19681879 0.01418858 0 0 Z " fill="#894CA2" transform="translate(420.3316192626953,284.8528289794922)"/>
<path d="M0 0 C84.15 0 168.3 0 255 0 C255 0.33 255 0.66 255 1 C253.88367188 1.09796875 252.76734375 1.1959375 251.6171875 1.296875 C191.36139795 6.91587584 133.85845497 31.40993133 89.83203125 73.3203125 C87.31543879 75.70152965 84.74618431 77.98564919 82.125 80.25 C78.02438975 83.88345212 74.52549872 87.81650054 71 92 C70.12730469 92.98484375 69.25460938 93.9696875 68.35546875 94.984375 C28.54140781 140.04080936 2.06485344 201.40015864 1 262 C0.67 262 0.34 262 0 262 C0 175.54 0 89.08 0 0 Z " fill="#FFFEFE" transform="translate(0,0)"/>
<path d="M0 0 C83.16 0 166.32 0 252 0 C252 83.49 252 166.98 252 253 C251.67 253 251.34 253 251 253 C250.91363281 252.01386719 250.82726562 251.02773437 250.73828125 250.01171875 C248.88940082 230.62979153 245.82338993 211.2823527 239 193 C238.26780188 190.66761616 237.53876413 188.3342384 236.8125 186 C220.82491504 138.38480132 189.7589126 92.95155854 150 62 C148.7212575 60.98059 147.4426186 59.96105003 146.1640625 58.94140625 C136.23628346 51.10466859 125.93921923 44.33260827 115 38 C114.27200195 37.57090332 113.54400391 37.14180664 112.79394531 36.69970703 C100.94941687 29.73280289 88.7266289 24.15784601 76 19 C74.80503906 18.50628906 73.61007812 18.01257813 72.37890625 17.50390625 C49.23461892 8.22885477 24.69737661 3.55396414 0 1 C0 0.67 0 0.34 0 0 Z " fill="#FEFEFE" transform="translate(302,0)"/>
<path d="M0 0 C1.14903809 0.13349854 2.29807617 0.26699707 3.48193359 0.40454102 C10.84958039 1.31496794 17.78275268 2.5902508 24.8984375 4.7265625 C27.93627185 5.63721765 30.97639452 6.39066514 34.06665039 7.09863281 C44.1455669 9.44113329 53.70821745 12.93075314 63.3125 16.75 C64.14942383 17.08128906 64.98634766 17.41257812 65.84863281 17.75390625 C108.88074729 34.98640889 149.98072837 63.67988502 178.3125 100.75 C179.53839844 102.30267578 179.53839844 102.30267578 180.7890625 103.88671875 C212.9690957 144.79106235 231.95887898 192.29139369 238.3125 243.75 C238.45715698 244.86870483 238.45715698 244.86870483 238.60473633 246.01000977 C240.30170569 259.16727089 240.30170569 259.16727089 237.4375 263.75 C233.47576379 267.47869291 229.76233556 266.87935808 224.5859375 266.84765625 C223.29171371 266.84553383 223.29171371 266.84553383 221.97134399 266.84336853 C219.2100277 266.83776188 216.44879188 266.82520827 213.6875 266.8125 C211.8177095 266.80748586 209.94791774 266.8029228 208.078125 266.79882812 C203.48955223 266.78779029 198.90103977 266.7705212 194.3125 266.75 C194.24107788 265.83420921 194.24107788 265.83420921 194.16821289 264.8999176 C192.00888595 237.43235555 188.05922644 209.67287243 178.3125 183.75 C178.07450684 183.0993457 177.83651367 182.44869141 177.59130859 181.77832031 C173.53003532 170.70483026 168.83319391 160.16743316 163.3125 149.75 C162.91047363 148.97930176 162.50844727 148.20860352 162.09423828 147.41455078 C149.60347247 123.54511256 133.97017137 102.16817428 115.3125 82.75 C114.5390625 81.94369141 114.5390625 81.94369141 113.75 81.12109375 C106.66641739 73.7820935 99.38203516 67.01138068 91.3125 60.75 C90.0348871 59.73210857 88.75756332 58.71385418 87.48046875 57.6953125 C71.39116921 44.98835807 54.04909422 35.26283493 35.79150391 26.01025391 C34.28249823 25.24311905 32.77816631 24.46657306 31.28271484 23.67333984 C25.46194155 20.62851211 19.37060314 18.44415449 13.1875 16.25 C12.07600586 15.85345215 10.96451172 15.4569043 9.81933594 15.04833984 C-2.18925515 10.805164 -14.2425135 7.47880103 -26.6875 4.75 C-26.375 2.875 -26.375 2.875 -25.6875 0.75 C-18.80546233 -3.83802512 -7.84525702 -0.9128419 0 0 Z " fill="#D9510D" transform="translate(314.6875,1.25)"/>
<path d="M0 0 C1.10142334 -0.00918457 2.20284668 -0.01836914 3.33764648 -0.02783203 C9.72491652 -0.00362499 15.38510602 0.61308803 21.5625 2.25 C21.86547602 5.58273623 21.95705953 7.60435714 20.1875 10.5 C16.25065196 13.12456536 12.17609061 13.48106823 7.5625 14.25 C-27.54315349 21.09420565 -57.61182151 40.50906294 -77.87524414 70.11010742 C-86.17604829 82.67392495 -92.74891981 96.63912403 -96.4375 111.25 C-96.64890625 112.05566406 -96.8603125 112.86132812 -97.078125 113.69140625 C-101.40766719 131.47345453 -101.12308967 152.4015469 -97.4375 170.25 C-97.24285156 171.30445313 -97.04820312 172.35890625 -96.84765625 173.4453125 C-93.42088626 190.27501127 -85.60188249 206.03736152 -75.4375 219.8125 C-72.69775226 223.60991779 -71.24798436 226.41735112 -71.4375 231.25 C-73.31084443 234.88062809 -75.54954847 237.60096503 -78.44921875 240.45703125 C-79.58520508 241.58334961 -79.58520508 241.58334961 -80.74414062 242.73242188 C-81.52982422 243.50134766 -82.31550781 244.27027344 -83.125 245.0625 C-84.32092773 246.24489258 -84.32092773 246.24489258 -85.54101562 247.45117188 C-87.5020551 249.38872585 -89.46761881 251.32144276 -91.4375 253.25 C-94.86160463 252.03172807 -97.26267407 250.81148951 -99.85546875 248.265625 C-100.46519531 247.66717773 -101.07492188 247.06873047 -101.703125 246.45214844 C-102.33734375 245.80793945 -102.9715625 245.16373047 -103.625 244.5 C-104.28628906 243.83258789 -104.94757813 243.16517578 -105.62890625 242.47753906 C-111.69821789 236.21634744 -116.66411308 229.52373245 -121.4375 222.25 C-122.36949219 220.9196875 -122.36949219 220.9196875 -123.3203125 219.5625 C-143.41205156 190.01052506 -149.22879889 151.39048189 -142.9765625 116.69189453 C-137.48867889 88.31848089 -124.23831426 64.23399121 -104.4375 43.25 C-103.77621094 42.52425781 -103.11492187 41.79851562 -102.43359375 41.05078125 C-75.91314913 13.02063391 -37.83651293 0.17557547 0 0 Z " fill="#FBA806" transform="translate(246.4375,133.75)"/>
<path d="M0 0 C5.60498022 -0.12379331 11.20916122 -0.21443018 16.81518555 -0.2746582 C18.72125107 -0.29976999 20.62722059 -0.33386645 22.53295898 -0.37719727 C25.27611998 -0.43799744 28.01800586 -0.46624245 30.76171875 -0.48828125 C31.61086349 -0.51408768 32.46000824 -0.5398941 33.33488464 -0.56648254 C37.74571495 -0.56856358 39.4539789 -0.4279838 43.04248047 2.38476562 C46.34602857 6.79828611 45.47312847 10.69968243 45 16 C44.90460938 17.12019531 44.80921875 18.24039062 44.7109375 19.39453125 C40.95750509 54.53696212 30.80555485 88.89779594 14 120 C13.66178223 120.63631348 13.32356445 121.27262695 12.97509766 121.92822266 C4.208743 138.35544937 -6.19177424 153.6164746 -18 168 C-18.64324219 168.78632813 -19.28648437 169.57265625 -19.94921875 170.3828125 C-23.19280804 174.26255369 -24.55385772 175.8005321 -29.625 176.5 C-35.38583073 176.37611117 -38.1614663 172.93645548 -42 169 C-43.05567499 167.95279481 -44.11309078 166.90734273 -45.171875 165.86328125 C-48.13642795 162.93002563 -51.0730989 159.97080462 -54 157 C-52.47791728 152.58346488 -50.08160034 148.99133741 -47.4375 145.1875 C-42.13085376 137.37799172 -37.4510327 129.3223004 -33 121 C-32.66790527 120.38640625 -32.33581055 119.7728125 -31.99365234 119.140625 C-12.04009306 81.99188012 -3.62950574 41.64665743 0 0 Z " fill="#763794" transform="translate(509,286)"/>
<path d="M0 0 C3.11853829 1.38468082 5.2375727 2.99070448 7.63671875 5.40625 C8.62575195 6.39818359 8.62575195 6.39818359 9.63476562 7.41015625 C10.65086914 8.44462891 10.65086914 8.44462891 11.6875 9.5 C12.37650391 10.18964844 13.06550781 10.87929688 13.77539062 11.58984375 C19.94994308 17.81903826 19.94994308 17.81903826 20.08325195 20.96411133 C19.78231986 25.36985048 19.40877889 27.49893716 16.54296875 31.01171875 C15.44693893 31.93110524 14.3263991 32.82178544 13.1875 33.6875 C12.57221436 34.18241943 11.95692871 34.67733887 11.32299805 35.18725586 C9.24287675 36.83136697 7.1297249 38.42072707 5 40 C4.2359082 40.56944336 3.47181641 41.13888672 2.68457031 41.72558594 C-50.7840656 81.15679766 -111.88149733 98.951556 -178 98 C-178.33 97.34 -178.66 96.68 -179 96 C-178.00226563 95.85304688 -177.00453125 95.70609375 -175.9765625 95.5546875 C-158.56797995 92.87978587 -141.24991897 89.1531794 -124.4375 83.875 C-123.70732666 83.64578857 -122.97715332 83.41657715 -122.22485352 83.18041992 C-116.32148912 81.24916958 -110.72808113 78.73130554 -105.10058594 76.11791992 C-101.40942956 74.45528681 -98.01863543 73.49007749 -94 73 C-94 72.34 -94 71.68 -94 71 C-92.83984375 70.54560547 -92.83984375 70.54560547 -91.65625 70.08203125 C-86.14033463 67.86337717 -81.00346235 65.60012715 -76.05078125 62.30859375 C-73.64174612 60.7713999 -71.15264642 59.45775902 -68.625 58.125 C-63.79551386 55.53849696 -59.39858196 52.57463179 -54.99609375 49.3203125 C-53 48 -53 48 -51 48 C-51 47.34 -51 46.68 -51 46 C-49.59375 44.94921875 -49.59375 44.94921875 -47.5 43.6875 C-29.4557486 31.93906217 -13.91861327 16.31981836 0 0 Z " fill="#0EAACE" transform="translate(443,456)"/>
<path d="M0 0 C2.79582588 1.80958179 5.40972643 3.79431537 8.05859375 5.8125 C37.42402823 27.65133574 74.90238031 30.8530042 110 26 C96.96712242 39.03287758 65.74265419 40.49351074 48.6875 40.6875 C24.84017061 40.52059085 -0.94244496 35.43388504 -21.16699219 22.15063477 C-23.05808852 20.96353607 -24.98923473 19.96790979 -27 19 C-25.61870485 15.89774696 -24.02060936 13.76399387 -21.62890625 11.36328125 C-20.97212891 10.70392578 -20.31535156 10.04457031 -19.63867188 9.36523438 C-18.95353516 8.68783203 -18.26839844 8.01042969 -17.5625 7.3125 C-16.5405957 6.27899414 -16.5405957 6.27899414 -15.49804688 5.22460938 C-14.51094727 4.24137695 -14.51094727 4.24137695 -13.50390625 3.23828125 C-12.60393921 2.341698 -12.60393921 2.341698 -11.68579102 1.42700195 C-8.0919716 -1.61512325 -4.23451314 -1.50956136 0 0 Z " fill="#0EAACE" transform="translate(196,380)"/>
</svg>
